# xmcd
#
# Track frame offsets: 
#        150
#        13482
#        34453
#        57973
#        77323
#        99828
#        120959
#        136607
#        147482
#        162201
#
# Disc length: 2793 seconds
#
# Revision: 1
# Processed by: cddbd v1.5.2PL0 Copyright (c) Steve Scherf et al.
# Submitted via: ExactAudioCopyFreeDBPlugin 1.0
#
DISCID=780ae70a
DTITLE=Юрий Наумов - Не поддающийся проверке
DYEAR=1987
DGENRE=Blues
TTITLE0=Мой Гимн
TTITLE1=Переведи на нейтраль
TTITLE2=Блюз № 666
TTITLE3=Ты и Я
TTITLE4=Где мой дом
TTITLE5=Не закрывай глаза
TTITLE6=Звёздная Ночь
TTITLE7=Не поддающийся проверке [инструментал]
TTITLE8=Мой Гимн (реприза)
TTITLE9=Театр Станиславского
EXTD=
EXTT0=
EXTT1=
EXTT2=
EXTT3=
EXTT4=
EXTT5=
EXTT6=
EXTT7=
EXTT8=
EXTT9=
PLAYORDER=
